<?xml version="1.0" encoding="UTF-8"?>
<!DOCTYPE svg  PUBLIC '-//W3C//DTD SVG 20010904//EN'  'http://www.w3.org/TR/2001/REC-SVG-20010904/DTD/svg10.dtd'>
<svg width="512pt" height="512pt" version="1.0" viewBox="0 0 512 512" xmlns="http://www.w3.org/2000/svg">
<g transform="translate(0 512) scale(.1 -.1)">
<path d="m2121 4309c-11-25-31-112-43-193-21-146-21-149-4-264 19-122 36-175 89-280 31-62 32-63 13-78-11-8-27-14-36-14s-56-14-105-30c-50-17-106-35-125-41s-42-17-51-25c-30-27-64-16-137 46-90 75-146 136-201 218-49 74-108 198-119 251-5 22-15 37-25 39-14 3-17-4-17-37 0-103 50-230 133-338 46-61 160-168 199-187 49-25 48-67-2-92-35-19-116-102-181-187-32-43-59-82-59-86s-13-20-29-35c-23-22-34-26-53-21-23 8-116 55-152 78-85 53-128 81-171 112-27 20-66 46-85 59s-66 49-104 79c-63 53-86 62-86 35 0-17 150-167 220-219 36-27 70-52 75-57 12-9 77-49 120-74 17-10 60-32 97-50s70-39 73-46c3-8-1-28-9-45-35-77-49-118-71-206-12-51-28-97-35-101s-61-11-120-15c-178-11-415 12-483 47-39 20-78 21-83 3-7-23 133-93 186-95 14 0 57-7 95-15 39-8 142-20 229-25 112-7 164-14 174-23 7-8 17-45 22-83 12-95 36-193 60-245 29-65 26-86-23-133-75-72-132-104-257-144-110-35-355-52-487-33-44 6-89 0-73-11 3-2 12-7 21-13 8-5 37-24 63-42 36-24 64-33 112-39 76-8 234 10 275 31 15 8 35 15 43 15 28 0 212 79 314 135 87 48 103 46 152-17 22-29 50-65 62-80 27-35 16-50-58-78-79-29-224-124-210-137 2-2 41 14 87 35 46 22 119 52 162 66l78 27 32-20c18-11 44-32 57-47 31-33 176-147 210-164 14-7 29-19 33-26 4-8 14-14 22-14 33 0 20 20-38 58-34 22-78 55-97 72-88 81-130 123-130 130 0 14 25 28 85 45 47 14 94 17 215 16 85 0 173-3 195-6 281-34 389-53 534-96 35-10 69-19 75-19 6-1 29-9 51-20s47-20 55-20c20 0 161-78 181-99 46-49 51-105 13-150-46-55-173-116-327-158-54-15-79-34-63-50 7-7 78 8 176 39 216 68 338 141 356 213 9 36-30 98-89 142-125 95-410 202-594 223-51 6-99 13-107 16-21 8-31 45-15 55 27 17 170 21 321 11 151-11 204-18 453-62 61-10 127-22 147-25 93-15 291-91 402-154 97-55 156-126 156-186 0-42-45-110-102-156-83-65-285-157-423-193-58-14-95-35-95-53 0-20 114-17 153 4 18 9 52 22 77 29 189 53 383 142 449 206 89 86 93 149 17 251-51 69-309 227-413 253-44 11-45 22-33 208 40 578-129 1009-458 1172-132 65-334 112-519 121-115 5-144 3-230-17-54-12-114-31-133-41-19-11-38-19-42-19-15 0-118-84-118-96 0-25 17-23 76 6 32 16 65 30 72 30s26 7 42 15c53 28 225 55 343 55 186 0 333-47 468-148 137-102 256-253 335-422 6-14 19-40 28-59 38-76 59-226 60-426 0-104 0-210-2-235-1-25-1-56 0-70 3-28 7-27-92-10-230 40-381 58-665 81-256 21-730-10-848-56-20-8-45-15-54-15s-48-16-86-36l-69-36-25 24c-14 13-34 39-44 58-11 19-31 55-45 80-37 65-62 133-90 240-32 129-34 329-3 464 45 196 104 324 203 439 191 222 320 306 601 393 88 28 432 28 520 0 81-25 166-55 188-67 10-5 43-23 74-40 116-63 310-220 434-351 47-51 80-78 88-74 8 6 6 16-9 40-28 47-25 64 21 126 83 112 199 219 300 277 60 34 190 73 274 81 71 6 80 9 83 28s-3 22-46 28c-130 17-329-45-474-146-55-38-191-154-221-187-15-17-34-31-42-31-9 0-63 48-120 106-119 120-123 130-81 221 54 116 181 250 329 348 57 38 87 64 87 77 0 27-44 23-115-11-141-67-306-229-395-389-31-56-53-72-77-55-29 20-95 51-154 72-92 35-92 34-90 144 1 53 10 148 21 211 33 202 78 315 150 380 26 23 39 43 36 52-5 12-10 13-28 3-43-23-123-115-151-175-16-32-33-66-37-75-30-58-76-358-63-409 2-8 0-27-6-42l-10-26-173 5-173 4-42 46c-56 61-108 167-139 282-21 79-26 118-27 230 0 75 3 159 7 186 5 37 3 55-8 70-14 19-16 18-35-26z"/>
<path d="m4370 2903c-121-8-250-26-300-40-219-62-279-88-385-164-49-35-61-55-44-75 19-23 54-16 121 25 35 21 88 51 118 66l80 40c34 18 139 53 230 77 50 13 113 20 190 21 95 2 115 5 118 18 3 17-38 40-66 37-9-1-37-3-62-5z"/>
<path d="m4105 2321c-157-26-305-86-420-169-38-27-46-38-43-60 5-41 40-41 91 1 85 69 198 112 356 133 117 15 351 18 420 5 71-14 96 6 43 33-84 43-335 75-447 57z"/>
</g>
</svg>
