<?xml version="1.0" standalone="no"?>
<!DOCTYPE svg PUBLIC "-//W3C//DTD SVG 20010904//EN"
 "http://www.w3.org/TR/2001/REC-SVG-20010904/DTD/svg10.dtd">
<svg version="1.0" xmlns="http://www.w3.org/2000/svg"
 width="584.000000pt" height="532.000000pt" viewBox="0 0 584.000000 532.000000"
 preserveAspectRatio="xMidYMid meet">

<g transform="translate(0.000000,532.000000) scale(0.100000,-0.100000)"
fill="#000000" stroke="none">
<path d="M1240 4953 c0 -30 -19 -64 -26 -48 -2 6 -53 9 -131 7 -71 -1 -123 1
-116 6 7 4 -19 6 -56 4 -38 -2 -76 0 -84 4 -9 5 -37 8 -64 6 l-48 -4 3 -59 c4
-64 -4 -113 -16 -105 -12 7 -270 48 -289 45 -10 -1 -26 1 -36 6 -9 4 -28 5
-42 3 -13 -3 -22 -2 -20 2 3 5 -13 10 -35 12 l-39 3 1 -55 c1 -48 -9 -256 -28
-577 l-6 -101 -51 4 c-29 2 -76 6 -104 9 l-53 5 0 -2060 0 -2060 2920 0 2920
0 0 879 0 879 -76 4 c-42 2 -78 0 -80 -4 -3 -4 -12 -4 -22 -1 -15 6 -16 5 -2
-12 14 -17 13 -18 -3 -12 -10 4 -27 7 -38 7 -11 0 -16 5 -13 13 3 8 -5 13 -20
15 -26 2 -53 -29 -41 -48 3 -6 -1 -10 -9 -10 -9 0 -16 5 -16 11 0 6 -9 9 -20
6 -15 -4 -20 0 -20 14 0 10 -7 19 -15 19 -8 0 -14 -3 -12 -7 5 -16 -35 -13
-100 8 -30 9 -77 18 -134 23 -14 2 -30 5 -35 8 -5 2 -25 5 -45 7 -20 1 -65 9
-100 17 -35 8 -73 15 -84 17 -15 1 -21 13 -27 46 -11 64 -28 76 -28 20 0 -32
-3 -40 -10 -29 -6 8 -8 32 -4 52 4 26 2 38 -6 38 -8 0 -11 14 -8 40 3 36 -4
52 -15 33 -2 -5 -2 -1 1 7 3 8 7 48 9 89 3 58 2 73 -9 69 -10 -4 -13 10 -14
56 -1 33 -5 107 -10 164 -5 56 -6 102 -2 102 5 0 9 -10 9 -22 1 -14 3 -17 6
-7 2 8 -3 28 -11 44 -11 21 -12 33 -5 42 8 9 6 22 -5 45 -11 21 -17 58 -17
103 0 86 -2 125 -9 125 -3 0 -6 71 -7 157 -1 94 2 151 8 142 6 -11 9 -8 9 9 0
13 -4 20 -10 17 -6 -3 -10 0 -10 7 -3 79 -12 196 -16 207 -2 7 1 20 7 27 7 8
7 14 1 14 -5 0 -10 48 -12 118 -3 168 -3 168 -31 164 -104 -12 -142 -13 -150
-5 -6 6 10 8 46 5 30 -2 61 0 67 5 7 6 24 10 39 9 24 -1 25 1 25 55 -1 31 -4
55 -8 52 -5 -2 -8 20 -9 49 0 29 -3 127 -5 217 -3 107 -1 166 5 171 6 3 -6 6
-27 7 -57 0 -96 9 -100 22 -2 6 -11 11 -20 11 -15 0 -15 -2 -2 -10 11 -7 7
-10 -17 -10 -17 0 -35 5 -38 11 -4 6 -21 9 -39 8 -17 -1 -38 1 -46 4 -8 3 -37
8 -65 11 -78 9 -127 15 -162 21 l-31 6 -4 -80 c-2 -43 1 -77 5 -74 5 3 7 -24
5 -61 -1 -36 0 -66 3 -66 3 0 14 -7 25 -15 18 -13 18 -14 -5 -8 l-23 6 6 -124
c4 -68 9 -194 11 -279 3 -85 8 -213 12 -285 3 -71 7 -148 7 -170 1 -25 7 -43
16 -47 13 -6 13 -7 -1 -7 -13 -1 -15 -11 -13 -58 11 -201 11 -322 1 -327 -9
-3 -9 -7 0 -13 14 -10 25 -166 28 -393 1 -96 6 -208 10 -249 7 -61 5 -73 -6
-69 -10 3 -14 21 -14 56 1 28 -3 48 -7 46 -4 -3 -8 -20 -8 -37 0 -18 -5 -39
-11 -47 -7 -11 -8 -4 -4 25 5 30 4 36 -4 25 -8 -11 -10 0 -10 45 1 47 3 55 10
35 7 -19 7 -16 3 15 -3 22 -8 50 -11 63 -3 13 -1 22 6 22 6 0 11 -10 12 -22 1
-19 2 -18 10 6 4 17 6 32 4 35 -3 2 -5 0 -5 -6 0 -6 -9 -9 -20 -6 -13 4 -17 9
-12 17 15 18 22 76 15 104 -7 25 -8 25 -14 -13 -5 -31 -7 -23 -8 40 -2 72 -10
271 -14 350 -2 24 -7 31 -32 36 l-30 7 31 1 31 1 -4 83 c-2 45 -8 134 -13 197
-5 63 -12 205 -15 315 -5 183 -12 350 -14 350 -1 0 -3 92 -6 204 -5 206 -9
240 -29 253 -7 5 -4 12 9 22 11 8 16 18 11 23 -5 4 -11 3 -13 -3 -7 -19 -42
-4 -36 14 4 14 3 14 -5 3 -7 -10 -21 -12 -46 -8 -34 5 -36 4 -36 -21 0 -21 -2
-24 -10 -12 -8 12 -10 9 -10 -13 0 -16 4 -26 9 -23 13 8 19 -52 7 -65 -8 -9
-8 -10 1 -5 8 4 11 -1 10 -14 -1 -11 -7 -20 -14 -20 -7 0 -13 -5 -13 -10 0 -6
6 -10 14 -8 8 2 15 -1 15 -7 0 -5 -8 -9 -17 -7 -14 2 -14 0 3 -13 11 -8 25
-13 32 -11 7 3 15 1 18 -4 3 -5 19 -7 35 -3 17 3 30 1 30 -4 0 -5 -10 -9 -22
-10 -19 0 -285 34 -403 52 -16 3 -70 9 -120 15 -49 6 -105 13 -122 16 -26 5
-33 3 -33 -10 0 -13 11 -16 58 -16 43 0 53 -3 42 -11 -13 -9 -12 -10 2 -5 22
7 244 -20 325 -39 35 -9 74 -13 87 -9 13 3 27 1 30 -5 5 -7 -2 -11 -16 -11
-19 -1 -20 -2 -7 -10 10 -6 29 -5 51 2 20 6 55 8 82 4 38 -6 46 -11 47 -29 1
-20 2 -20 9 3 5 16 8 -9 8 -70 -1 -66 -3 -84 -8 -60 l-7 35 -2 -42 c0 -24 4
-43 9 -43 6 0 10 -5 10 -10 0 -6 -11 -8 -27 -3 -16 4 -37 6 -48 6 -11 0 -45 3
-75 8 -30 4 -86 10 -125 13 -38 3 -142 15 -230 26 -204 25 -220 25 -209 3 9
-22 11 -67 13 -282 1 -175 9 -217 12 -63 l1 92 34 0 c19 0 34 3 34 8 0 4 15 7
33 7 27 0 32 -3 29 -23 -2 -17 2 -22 17 -22 12 0 21 5 21 11 0 6 9 8 20 4 12
-4 20 -2 20 5 0 8 -11 11 -29 8 -17 -2 -28 -1 -25 4 7 11 44 10 106 -4 46 -10
50 -12 28 -19 l-25 -7 28 -1 c21 -1 27 -6 28 -23 l0 -23 12 23 c8 19 8 26 -4
33 -9 7 2 8 36 4 28 -3 66 -7 87 -8 20 -1 34 -5 32 -9 -3 -4 6 -10 20 -14 29
-7 70 12 59 29 -10 16 -11 67 -2 67 5 0 6 30 2 68 -3 37 -3 64 0 61 4 -3 9
-52 12 -109 5 -112 12 -124 57 -116 15 3 30 1 33 -4 4 -6 -16 -8 -49 -6 -31 2
-56 0 -56 -4 0 -12 57 -20 104 -14 35 5 43 3 43 -10 0 -9 -7 -16 -14 -16 -8 0
-11 5 -8 10 3 6 -2 10 -12 10 -16 -1 -16 -2 3 -19 19 -15 22 -30 25 -103 l4
-85 -25 7 c-21 5 -26 13 -28 48 l-3 42 -47 -2 -47 -1 43 -4 c53 -5 55 -23 2
-23 -22 0 -40 -4 -40 -10 0 -5 6 -11 13 -11 6 -1 22 -3 35 -4 28 -3 36 -10 27
-24 -6 -11 -84 -8 -220 10 -118 15 -137 17 -225 24 -47 3 -112 8 -146 11 l-61
5 3 -48 c2 -26 5 -128 8 -227 2 -126 7 -181 16 -186 9 -6 9 -9 -1 -13 -8 -3
-2 -6 14 -6 15 -1 27 -5 27 -10 0 -5 8 -12 18 -14 9 -3 2 -5 -15 -6 -18 0 -33
4 -33 9 0 6 -4 10 -10 10 -6 0 -8 -49 -5 -132 3 -115 6 -332 5 -407 0 -20 -2
-21 -15 -11 -12 10 -15 9 -15 -8 0 -11 6 -25 14 -31 19 -16 27 -181 9 -174
-10 4 -13 -13 -13 -65 0 -38 -3 -85 -7 -103 -6 -32 -5 -33 12 -19 17 14 17 12
13 -23 -3 -28 0 -37 12 -38 9 0 10 -2 3 -5 -7 -3 -22 0 -33 6 -21 11 -22 16
-15 91 5 57 4 79 -4 79 -8 0 -11 -27 -10 -89 1 -78 4 -90 20 -94 26 -7 13 -37
-15 -36 -20 0 -20 1 -1 9 17 7 17 9 3 9 -20 1 -22 10 -23 126 -1 155 -16 691
-21 780 -3 50 -5 144 -5 209 1 74 -3 124 -10 133 -6 7 -8 13 -3 13 7 0 8 66 4
268 0 7 -13 12 -30 12 -16 0 -30 3 -30 8 0 4 -12 7 -27 6 -16 0 -68 3 -118 7
-49 4 -130 10 -180 14 -49 3 -121 11 -160 16 -88 12 -136 17 -204 21 l-55 3 0
-248 -1 -248 28 -6 c15 -3 25 -8 22 -11 -4 -5 -16 -7 -58 -11 -5 -1 -5 -6 -1
-13 7 -11 9 -516 3 -523 -2 -2 -2 -55 1 -119 l5 -116 -37 0 -38 0 -2 103 -2
102 -6 -95 -6 -95 -2 102 c-1 73 1 103 10 106 9 4 9 6 1 6 -9 1 -12 135 -12
539 -1 327 -5 538 -11 540 -5 2 -6 12 0 26 13 35 5 243 -11 262 -15 19 -26
191 -12 205 5 5 9 0 9 -14 1 -111 5 -177 12 -177 4 0 7 49 7 109 l0 109 -75 8
c-41 4 -82 8 -90 9 -8 1 -98 12 -200 23 -102 12 -216 26 -255 32 -38 5 -110
15 -160 21 -49 7 -93 17 -97 23 -5 7 -8 7 -8 -2 0 -7 -5 -10 -10 -7 -6 4 -8
10 -5 15 3 4 -2 13 -10 20 -9 8 -15 8 -15 2 0 -6 -6 -12 -12 -15 -7 -2 -5 -3
5 -2 9 2 17 -2 17 -7 0 -7 -17 -8 -46 -4 -26 3 -60 6 -75 6 -38 0 -37 19 1 26
17 4 32 15 36 26 5 17 12 19 40 15 19 -3 34 -2 34 4 0 5 -10 9 -22 10 -22 1
-22 1 2 9 21 8 19 9 -15 7 -31 -1 -40 2 -43 16 -3 14 4 17 37 17 39 0 41 2 41
29 0 23 5 30 27 36 21 5 24 8 12 16 -20 13 -39 11 -39 -3 0 -13 -44 -38 -67
-38 -26 0 -12 17 32 39 44 22 50 22 166 12 67 -6 130 -16 141 -22 11 -6 26 -8
35 -5 8 3 40 3 71 -1 43 -5 52 -8 37 -15 -12 -5 6 -6 44 -2 54 4 63 3 53 -8
-7 -9 -8 -19 -1 -28 8 -13 10 -13 18 0 5 8 7 18 4 24 -4 5 3 6 18 2 13 -4 69
-12 124 -18 55 -5 129 -16 165 -22 l65 -12 3 -94 c2 -67 0 -91 -8 -80 -6 9
-10 10 -10 3 0 -6 4 -14 10 -18 5 -3 7 -12 3 -20 -3 -8 0 -15 6 -15 6 0 11 7
11 15 3 114 0 229 -7 235 -4 4 -75 15 -158 24 -82 10 -188 24 -235 33 -47 8
-109 14 -138 14 -29 -1 -60 3 -70 8 -9 5 -66 14 -125 20 -60 6 -113 14 -119
17 -6 4 -29 8 -52 9 -58 3 -226 32 -234 40 -4 4 8 4 27 0 28 -6 33 -5 28 8 -3
9 1 18 9 21 24 9 26 7 15 -13 -9 -17 -5 -19 42 -24 29 -3 73 -9 100 -13 39 -5
47 -4 47 9 0 9 -6 14 -12 12 -10 -4 -14 19 -15 91 -2 88 -1 97 17 101 36 9 21
21 -35 28 -30 3 -55 11 -55 17 0 6 -9 8 -20 5 -11 -3 -23 -1 -26 4 -3 5 -29 9
-57 9 -61 1 -81 13 -90 57 -6 32 6 56 34 65 8 3 10 16 5 41 -5 28 -12 37 -26
37 -17 0 -20 7 -20 55 0 42 -3 55 -15 55 -10 0 -15 -10 -15 -27z m-373 -209
c-3 -3 -12 -4 -19 -1 -8 3 -5 6 6 6 11 1 17 -2 13 -5z m203 -30 c0 -2 -9 -4
-20 -4 -11 0 -20 4 -20 9 0 5 9 7 20 4 11 -3 20 -7 20 -9z m-271 -10 c13 -12
-8 -10 -29 2 l-25 15 25 -7 c14 -3 27 -8 29 -10z m-59 -24 c0 -5 -4 -10 -10
-10 -5 0 -10 5 -10 10 0 6 5 10 10 10 6 0 10 -4 10 -10z m140 -10 c0 -5 -9
-10 -20 -10 -11 0 -20 5 -20 10 0 6 9 10 20 10 11 0 20 -4 20 -10z m513 -37
c-7 -2 -19 -2 -25 0 -7 3 -2 5 12 5 14 0 19 -2 13 -5z m5 -20 c-10 -2 -26 -2
-35 0 -10 3 -2 5 17 5 19 0 27 -2 18 -5z m2 -22 c0 -12 -20 -25 -27 -18 -7 7
6 27 18 27 5 0 9 -4 9 -9z m-10 -51 c0 -5 -4 -10 -9 -10 -6 0 -13 5 -16 10 -3
6 1 10 9 10 9 0 16 -4 16 -10z m3 -27 c-7 -2 -19 -2 -25 0 -7 3 -2 5 12 5 14
0 19 -2 13 -5z m0 -50 c-7 -2 -19 -2 -25 0 -7 3 -2 5 12 5 14 0 19 -2 13 -5z
m-6 -99 c-3 -3 -12 -4 -19 -1 -8 3 -5 6 6 6 11 1 17 -2 13 -5z m-810 -10 c-3
-3 -12 -4 -19 -1 -8 3 -5 6 6 6 11 1 17 -2 13 -5z m305 -19 c3 -13 1 -22 -3
-19 -9 5 -13 44 -5 44 2 0 6 -11 8 -25z m556 -6 c-2 -6 -7 -10 -11 -10 -4 1
-14 1 -22 1 -8 0 -15 5 -15 10 0 6 12 10 26 10 14 0 24 -5 22 -11z m-648 -9
c0 -5 -7 -7 -15 -4 -8 4 -15 8 -15 10 0 2 7 4 15 4 8 0 15 -4 15 -10z m-280
-46 c0 -8 -5 -12 -10 -9 -6 4 -8 11 -5 16 9 14 15 11 15 -7z m289 7 c9 -6 10
-11 2 -15 -6 -4 -11 -3 -11 3 0 5 -8 12 -17 14 -13 3 -14 5 -3 6 8 0 21 -3 29
-8z m-185 -17 c10 -26 7 -34 -12 -34 -26 0 -33 10 -21 31 12 23 25 24 33 3z
m-145 -20 c-8 -10 -8 -14 0 -14 6 0 11 -7 11 -15 0 -9 -6 -12 -15 -9 -15 6
-21 45 -9 57 13 13 25 -5 13 -19z m211 6 c0 -11 -4 -20 -9 -20 -5 0 -7 9 -4
20 3 11 7 20 9 20 2 0 4 -9 4 -20z m-140 -10 c0 -5 -2 -10 -4 -10 -3 0 -8 5
-11 10 -3 6 -1 10 4 10 6 0 11 -4 11 -10z m126 -30 c12 0 12 -4 -1 -24 -11
-16 -22 -22 -35 -19 -17 4 -20 0 -20 -26 0 -17 -3 -31 -8 -31 -4 0 -15 -12
-25 -27 l-17 -28 6 29 c6 26 5 27 -14 17 -31 -17 -65 -14 -58 4 3 8 1 15 -4
15 -6 0 -10 12 -9 28 0 15 3 21 6 15 2 -7 20 -13 39 -13 26 0 34 -4 34 -17 0
-15 2 -15 9 -4 6 9 5 23 -1 37 -14 31 -3 61 16 45 11 -9 19 -9 35 1 12 7 22
17 22 23 1 5 3 2 6 -7 2 -10 11 -18 19 -18z m279 20 c3 -5 1 -10 -4 -10 -6 0
-11 5 -11 10 0 6 2 10 4 10 3 0 8 -4 11 -10z m-175 -25 c6 4 9 1 8 -7 -2 -7 5
-12 15 -12 9 1 17 -2 17 -6 0 -5 3 -17 6 -27 7 -17 6 -17 -12 -1 -16 16 -19
16 -35 2 -10 -9 -26 -14 -36 -11 -16 4 -16 6 4 12 27 9 19 35 -11 36 -20 0
-20 1 -1 9 l20 9 -20 0 c-17 1 -17 3 -5 11 11 7 18 5 27 -6 6 -9 17 -13 23 -9z
m-320 -21 c0 -8 -4 -14 -8 -14 -4 0 -8 9 -8 19 0 11 4 17 8 15 4 -3 8 -12 8
-20z m511 8 c-7 -2 -18 1 -23 6 -8 8 -4 9 13 5 13 -4 18 -8 10 -11z m3166 -24
c-3 -8 -6 -5 -6 6 -1 11 2 17 5 13 3 -3 4 -12 1 -19z m-3040 -10 c-3 -8 -6 -5
-6 6 -1 11 2 17 5 13 3 -3 4 -12 1 -19z m-380 -10 c-3 -8 -6 -5 -6 6 -1 11 2
17 5 13 3 -3 4 -12 1 -19z m653 -8 c0 -5 -15 -10 -32 -10 -25 0 -29 3 -18 10
20 13 50 13 50 0z m2767 -52 c-2 -13 -4 -5 -4 17 -1 22 1 32 4 23 2 -10 2 -28
0 -40z m-3357 13 c-10 -20 -30 -29 -30 -14 0 10 33 44 37 39 3 -2 0 -14 -7
-25z m-30 15 c0 -3 -4 -8 -10 -11 -5 -3 -10 -1 -10 4 0 6 5 11 10 11 6 0 10
-2 10 -4z m-205 -47 c10 -15 -1 -23 -20 -15 -9 3 -13 10 -10 16 8 13 22 13 30
-1z m75 1 c0 -5 -4 -10 -10 -10 -5 0 -10 5 -10 10 0 6 5 10 10 10 6 0 10 -4
10 -10z m103 3 c-7 -2 -19 -2 -25 0 -7 3 -2 5 12 5 14 0 19 -2 13 -5z m29 -20
c-16 -3 -22 -10 -18 -19 3 -9 1 -12 -4 -9 -6 3 -10 -1 -10 -10 0 -19 -25 -47
-33 -38 -3 3 1 12 9 20 8 9 13 20 11 27 -5 15 23 36 48 34 16 -1 16 -2 -3 -5z
m-72 -33 c0 -5 -2 -10 -4 -10 -3 0 -8 5 -11 10 -3 6 -1 10 4 10 6 0 11 -4 11
-10z m85 0 c3 -5 1 -10 -4 -10 -6 0 -11 5 -11 10 0 6 2 10 4 10 3 0 8 -4 11
-10z m132 -6 c-3 -3 -12 -4 -19 -1 -8 3 -5 6 6 6 11 1 17 -2 13 -5z m-377 -24
c0 -5 -2 -10 -4 -10 -3 0 -8 5 -11 10 -3 6 -1 10 4 10 6 0 11 -4 11 -10z m230
0 c0 -5 -2 -10 -4 -10 -3 0 -8 5 -11 10 -3 6 -1 10 4 10 6 0 11 -4 11 -10z
m180 -3 c-14 -8 -27 -12 -30 -10 -7 6 23 23 40 23 8 0 4 -6 -10 -13z m1352
-78 c-3 -39 1 -97 8 -130 12 -54 15 -59 39 -58 l26 1 -25 8 c-22 7 -21 8 12 9
20 1 40 -4 43 -9 4 -6 16 -8 28 -5 12 2 16 2 10 -1 -16 -7 -17 -31 -2 -36 6
-2 11 -44 12 -108 l2 -105 -90 3 c-50 2 -121 8 -160 14 -88 12 -111 14 -215
22 -80 6 -226 19 -350 31 -30 3 -73 7 -95 9 -113 9 -166 19 -157 28 7 7 23 8
51 1 32 -9 42 -7 55 5 14 14 17 14 36 -3 11 -10 20 -13 20 -7 0 8 19 12 49 12
54 0 84 -8 76 -20 -7 -11 68 -21 79 -10 7 7 6 10 -2 10 -7 0 -12 14 -12 35 0
24 -5 35 -15 35 -9 0 -15 -9 -15 -25 0 -27 -24 -35 -34 -10 -3 8 -15 15 -26
15 -17 0 -20 7 -22 48 -1 43 -2 44 -5 10 -3 -29 -9 -38 -23 -38 -14 0 -19 9
-22 40 -2 22 0 40 5 40 4 0 5 5 2 11 -4 6 -1 10 6 8 28 -3 39 1 39 16 0 12 14
15 78 13 l77 -2 -75 -6 -75 -6 78 -2 c65 -2 77 1 77 14 0 12 5 11 20 -7 l20
-24 24 28 c15 19 30 27 42 24 16 -4 15 -5 -3 -6 -13 0 -23 -5 -23 -11 0 -6 28
-9 68 -9 37 1 55 4 40 6 -16 2 -28 9 -28 14 0 6 9 7 21 4 11 -4 35 -8 52 -10
18 -1 71 -6 120 -10 48 -4 90 -12 94 -18 4 -7 -7 -8 -33 -4 -75 12 -180 17
-154 8 14 -5 50 -9 81 -10 41 -1 60 -6 70 -18 11 -15 11 -16 -1 -5 -8 6 -23
12 -34 11 -12 0 -15 -3 -8 -6 7 -2 12 -22 12 -44 0 -21 5 -39 10 -39 6 0 10
11 10 25 0 23 4 25 40 25 29 0 40 4 40 15 0 11 -7 14 -25 11 -14 -3 -25 0 -25
5 0 5 12 9 26 9 14 0 23 4 20 9 -4 5 0 11 6 13 10 4 12 32 11 106 -1 73 2 102
10 102 7 0 6 4 -3 10 -13 9 -13 10 0 10 13 0 15 -12 12 -71z m-1539 44 c-3 -7
-6 -13 -8 -13 -2 0 -5 6 -8 13 -3 8 1 14 8 14 7 0 11 -6 8 -14z m342 8 c3 -5
1 -12 -5 -16 -5 -3 -10 1 -10 9 0 18 6 21 15 7z m3281 -28 c15 -20 23 -33 16
-29 -13 8 -56 66 -49 66 3 0 17 -17 33 -37z m-3459 21 c-3 -3 -12 -4 -19 -1
-8 3 -5 6 6 6 11 1 17 -2 13 -5z m-37 -21 c0 -10 -4 -14 -8 -8 -4 6 -11 13
-16 18 -5 4 -2 7 7 7 10 0 17 -8 17 -17z m677 -35 c-2 -13 -4 -5 -4 17 -1 22
1 32 4 23 2 -10 2 -28 0 -40z m-551 5 c-8 -15 -15 -25 -16 -21 0 12 23 58 27
54 3 -2 -2 -17 -11 -33z m-831 7 c3 -5 1 -10 -4 -10 -6 0 -11 5 -11 10 0 6 2
10 4 10 3 0 8 -4 11 -10z m890 -19 c-3 -6 -11 -11 -17 -11 -6 0 -6 6 2 15 14
17 26 13 15 -4z m-863 -28 c-3 -16 -7 -22 -10 -15 -4 13 4 42 11 42 2 0 2 -12
-1 -27z m4228 -18 c0 -5 -5 -3 -10 5 -5 8 -10 20 -10 25 0 6 5 3 10 -5 5 -8
10 -19 10 -25z m-2850 4 c0 -5 -4 -9 -10 -9 -5 0 -10 7 -10 16 0 8 5 12 10 9
6 -3 10 -10 10 -16z m-135 -19 c3 -5 1 -10 -4 -10 -6 0 -11 5 -11 10 0 6 2 10
4 10 3 0 8 -4 11 -10z m205 -15 c0 -2 -18 -5 -40 -7 -24 -2 -40 1 -40 7 0 6
16 9 40 7 22 -2 40 -5 40 -7z m1946 -20 c6 -26 -4 -121 -12 -112 -9 9 -13 137
-4 137 5 0 12 -11 16 -25z m-2138 8 c-10 -2 -28 -2 -40 0 -13 2 -5 4 17 4 22
1 32 -1 23 -4z m3043 -30 c13 -16 12 -17 -3 -4 -17 13 -22 21 -14 21 2 0 10
-8 17 -17z m-344 -100 c-2 -16 -4 -3 -4 27 0 30 2 43 4 28 2 -16 2 -40 0 -55z
m-557 -27 c0 -3 -4 -8 -10 -11 -5 -3 -10 -1 -10 4 0 6 5 11 10 11 6 0 10 -2
10 -4z m-2143 -12 c-3 -3 -12 -4 -19 -1 -8 3 -5 6 6 6 11 1 17 -2 13 -5z
m2053 -30 c0 -2 -11 -4 -25 -4 -14 0 -25 4 -25 9 0 4 11 6 25 3 14 -2 25 -6
25 -8z m-2113 -116 c-3 -8 -6 -5 -6 6 -1 11 2 17 5 13 3 -3 4 -12 1 -19z m900
-75 c-3 -10 -5 -4 -5 12 0 17 2 24 5 18 2 -7 2 -21 0 -30z m-20 -5 c-3 -7 -5
-2 -5 12 0 14 2 19 5 13 2 -7 2 -19 0 -25z m2490 7 c-9 -8 -21 -15 -27 -15 -7
0 -2 9 11 19 28 22 39 20 16 -4z m-2180 -7 c-3 -8 -6 -5 -6 6 -1 11 2 17 5 13
3 -3 4 -12 1 -19z m-127 2 c0 -5 -2 -10 -4 -10 -3 0 -8 5 -11 10 -3 6 -1 10 4
10 6 0 11 -4 11 -10z m-893 -32 c-3 -8 -6 -5 -6 6 -1 11 2 17 5 13 3 -3 4 -12
1 -19z m3153 14 c0 -13 -76 -45 -92 -39 -8 3 -5 6 7 6 11 1 34 10 50 20 36 23
35 23 35 13z m-1980 -34 c0 -16 -3 -19 -11 -11 -6 6 -8 16 -5 22 11 17 16 13
16 -11z m-283 -30 c-3 -7 -5 -2 -5 12 0 14 2 19 5 13 2 -7 2 -19 0 -25z m2106
15 c-13 -2 -33 -2 -45 0 -13 2 -3 4 22 4 25 0 35 -2 23 -4z m-1343 -13 c0 -5
-7 -10 -15 -10 -8 0 -15 5 -15 10 0 6 7 10 15 10 8 0 15 -4 15 -10z m389 -166
c4 3 5 -8 3 -25 -2 -16 -8 -29 -12 -29 -5 0 -8 53 -7 118 1 110 1 112 4 24 2
-51 7 -91 12 -88z m-1321 118 c-4 -24 -1 -42 8 -50 8 -7 14 -18 14 -25 -1 -7
-10 -1 -20 12 -22 25 -28 101 -9 101 8 0 10 -13 7 -38z m460 -49 c-2 -32 -20
-44 -33 -23 -3 6 0 10 8 10 11 0 13 12 11 53 -3 45 -3 48 6 22 6 -16 9 -45 8
-62z m1622 66 c-7 -11 -14 -18 -17 -15 -3 3 0 12 7 21 18 21 23 19 10 -6z
m-2790 -30 c0 -6 -4 -7 -10 -4 -5 3 -10 11 -10 16 0 6 5 7 10 4 6 -3 10 -11
10 -16z m-65 1 c3 -5 1 -10 -4 -10 -6 0 -11 5 -11 10 0 6 2 10 4 10 3 0 8 -4
11 -10z m1845 -55 c0 -36 -3 -65 -7 -65 -5 0 -6 29 -5 65 2 36 6 65 8 65 2 0
4 -29 4 -65z m981 32 c-10 -9 -11 -8 -5 6 3 10 9 15 12 12 3 -3 0 -11 -7 -18z
m-2791 3 c0 -5 -5 -10 -11 -10 -5 0 -7 5 -4 10 3 6 8 10 11 10 2 0 4 -4 4 -10z
m240 3 c0 -5 -20 -8 -45 -8 -25 0 -45 3 -45 8 0 4 20 7 45 7 25 0 45 -3 45 -7z
m85 -3 c3 -5 2 -10 -4 -10 -5 0 -13 5 -16 10 -3 6 -2 10 4 10 5 0 13 -4 16
-10z m2165 -50 l-7 -55 -2 51 c0 28 2 54 6 57 10 11 10 6 3 -53z m-1453 18
c-3 -8 -6 -5 -6 6 -1 11 2 17 5 13 3 -3 4 -12 1 -19z m620 0 c-3 -8 -6 -5 -6
6 -1 11 2 17 5 13 3 -3 4 -12 1 -19z m-1009 4 c-32 -6 -19 -22 18 -22 19 0 33
4 29 9 -3 5 0 13 6 16 6 4 13 -2 16 -14 5 -18 13 -21 67 -22 33 -1 50 -4 36
-6 -14 -2 -32 -7 -40 -10 -8 -3 -19 -5 -24 -4 -29 6 -46 -12 -46 -50 0 -28 -4
-39 -15 -39 -10 0 -15 10 -15 33 0 17 -3 42 -6 55 -6 21 -10 22 -68 18 -53 -5
-57 -4 -33 6 l27 12 -27 11 c-25 11 -22 12 32 11 33 0 52 -2 43 -4z m-178 -12
c0 -5 -18 -10 -40 -10 -22 0 -40 5 -40 10 0 6 18 10 40 10 22 0 40 -4 40 -10z
m417 -12 c-3 -8 -6 -5 -6 6 -1 11 2 17 5 13 3 -3 4 -12 1 -19z m1893 -18 c0
-29 -4 -40 -15 -40 -12 0 -13 4 -5 19 5 11 10 29 10 40 0 12 2 21 5 21 3 0 5
-18 5 -40z m-2550 0 c0 -13 -7 -20 -20 -20 -18 0 -19 3 -10 20 6 11 15 20 20
20 6 0 10 -9 10 -20z m850 4 c0 -2 -11 -4 -25 -4 -14 0 -25 4 -25 9 0 4 11 6
25 3 14 -2 25 -6 25 -8z m593 -4 c3 -11 1 -23 -4 -26 -12 -7 -11 -44 1 -44 6
0 10 -4 10 -10 0 -5 -9 -10 -20 -10 -13 0 -20 7 -20 20 0 15 -7 20 -25 20 -14
0 -25 4 -25 9 0 5 10 7 21 4 25 -7 51 20 42 43 -3 8 -1 14 5 14 5 0 12 -9 15
-20z m-445 -16 c6 -7 12 -28 12 -48 0 -34 0 -35 -54 -41 -78 -10 -158 2 -154
24 2 11 14 16 38 16 29 0 36 4 38 23 2 12 11 22 20 23 14 0 13 2 -3 9 -19 8
-19 9 3 9 12 1 22 -3 22 -9 0 -5 7 -10 15 -10 8 0 15 7 15 15 0 16 26 10 48
-11z m-593 6 c-3 -5 -25 -9 -48 -8 l-42 1 45 7 c25 4 46 8 48 8 2 1 0 -2 -3
-8z m256 -112 c0 -73 3 -106 9 -93 8 19 9 19 9 -2 1 -20 -3 -22 -36 -19 -21 2
-51 4 -68 5 -25 1 -27 3 -15 15 8 8 29 17 47 21 25 5 32 3 36 -12 4 -14 5 -13
6 4 1 21 -3 23 -53 20 -42 -1 -52 -5 -44 -14 8 -10 6 -13 -5 -13 -8 0 -17 -5
-19 -10 -2 -7 -65 -6 -198 3 -107 8 -170 16 -140 17 51 2 52 3 20 10 -26 5
-16 6 37 6 39 -1 66 -4 61 -7 -6 -4 12 -8 41 -10 28 -2 51 -1 51 4 0 4 10 8
23 8 l22 2 -22 4 c-15 3 -23 12 -23 24 0 16 8 19 43 20 198 6 189 6 200 -21 4
-8 5 22 4 68 -1 45 1 82 6 82 4 0 7 -51 8 -112z m486 106 c-3 -3 -12 -4 -19
-1 -8 3 -5 6 6 6 11 1 17 -2 13 -5z m-542 -14 c-28 -12 -45 -12 -45 0 0 6 15
10 33 9 27 0 29 -2 12 -9z m72 -52 c-2 -13 -4 -3 -4 22 0 25 2 35 4 23 2 -13
2 -33 0 -45z m658 42 c16 -7 13 -9 -17 -9 -21 -1 -38 4 -38 9 0 12 27 12 55 0z
m1285 2 c0 -5 -13 -7 -30 -4 -16 2 -30 6 -30 8 0 2 14 4 30 4 17 0 30 -4 30
-8z m-1500 -12 c0 -5 -11 -10 -24 -10 -14 0 -28 -4 -31 -10 -3 -5 -1 -10 4
-10 6 0 11 -4 11 -10 0 -5 -9 -10 -20 -10 -14 0 -20 7 -20 24 0 13 6 27 13 29
22 9 67 7 67 -3z m410 -1 c8 -1 -3 -5 -25 -9 l-40 -7 50 -2 50 -1 3 -55 c2
-34 -1 -55 -7 -55 -6 0 -11 22 -11 50 l0 50 -37 -1 c-33 -1 -34 -2 -13 -8 22
-6 25 -13 26 -51 1 -25 0 -33 -3 -17 -4 24 -9 27 -44 27 -28 0 -39 4 -39 15 0
8 7 15 16 15 11 0 14 6 9 20 -11 35 -1 39 65 29z m-923 -15 c15 -4 15 -6 3
-14 -26 -16 -50 -11 -50 10 0 13 5 18 15 15 8 -3 23 -7 32 -11z m1670 -26 c-3
-7 -5 -2 -5 12 0 14 2 19 5 13 2 -7 2 -19 0 -25z m382 -23 c0 -5 -6 1 -14 15
-8 14 -14 30 -14 35 0 6 6 -1 14 -15 8 -14 14 -29 14 -35z m-1317 38 c-12 -2
-20 -9 -17 -14 4 -5 -5 -9 -19 -9 -16 0 -26 -6 -26 -15 0 -12 -16 -15 -80 -15
-80 0 -80 0 -80 26 l0 26 80 -7 c56 -5 80 -4 80 4 0 6 17 10 43 10 23 -1 32
-4 19 -6z m478 -12 c0 -10 -25 -21 -48 -21 -12 0 -9 4 8 14 31 17 40 19 40 7z
m110 -1 c-11 -7 5 -10 53 -10 l67 0 0 -40 c0 -29 4 -40 15 -40 11 0 15 -11 15
-40 l0 -40 -80 0 -80 0 0 75 c0 71 -1 75 -22 75 -23 1 -23 1 2 15 28 16 54 20
30 5z m-533 -6 c-3 -3 -12 -4 -19 -1 -8 3 -5 6 6 6 11 1 17 -2 13 -5z m351
-41 c3 -38 1 -43 -17 -43 -18 0 -21 6 -21 39 0 22 -6 42 -12 45 -7 3 1 4 17 3
28 -2 30 -5 33 -44z m567 17 c4 -6 -6 -7 -27 -3 -44 8 -48 13 -10 13 17 0 34
-4 37 -10z m68 -14 c19 -15 23 -36 6 -36 -5 0 -7 5 -4 10 3 6 -2 10 -13 10
-10 0 -19 7 -19 15 0 18 7 18 30 1z m-108 -6 c18 -8 17 -9 -7 -9 -16 -1 -28 4
-28 9 0 12 8 12 35 0z m-2595 -20 c0 -5 -9 -10 -21 -10 -11 0 -17 5 -14 10 3
6 13 10 21 10 8 0 14 -4 14 -10z m190 -10 c41 -5 89 -14 105 -20 27 -9 26 -9
-10 -4 -22 4 -71 8 -110 9 -38 2 -92 4 -120 5 l-50 2 30 13 c17 7 41 11 55 9
14 -2 59 -8 100 -14z m807 -2 c-3 -8 -6 -5 -6 6 -1 11 2 17 5 13 3 -3 4 -12 1
-19z m1578 2 c3 -5 1 -10 -4 -10 -6 0 -11 5 -11 10 0 6 2 10 4 10 3 0 8 -4 11
-10z m72 -6 c-3 -3 -12 -4 -19 -1 -8 3 -5 6 6 6 11 1 17 -2 13 -5z m-2227 -14
c21 -7 19 -8 -17 -9 -23 -1 -45 4 -48 9 -7 12 29 12 65 0z m293 3 c-7 -2 -21
-2 -30 0 -10 3 -4 5 12 5 17 0 24 -2 18 -5z m497 -2 c0 -4 -11 -6 -25 -3 -14
2 -25 6 -25 8 0 2 11 4 25 4 14 0 25 -4 25 -9z m85 -1 c-3 -5 -10 -10 -16 -10
-5 0 -9 5 -9 10 0 6 7 10 16 10 8 0 12 -4 9 -10z m335 -30 l0 -40 68 -2 c64
-1 65 -1 22 -8 l-45 -7 48 -1 c26 -1 47 3 47 8 0 6 7 10 16 10 8 0 12 -4 9
-10 -3 -5 3 -10 14 -10 10 0 26 -3 35 -6 10 -4 16 -1 16 9 0 10 6 13 21 10 16
-4 17 -8 7 -14 -10 -7 -10 -9 0 -9 6 0 12 -4 12 -10 0 -5 -6 -7 -12 -5 -21 8
-354 33 -385 29 -24 -3 -25 -3 -5 4 12 4 -45 8 -127 8 -83 1 -163 5 -178 9
-26 6 -27 7 -10 20 17 12 15 14 -25 23 l-43 10 41 1 c26 1 46 -5 54 -14 14
-17 41 -20 55 -6 9 9 102 -12 158 -34 10 -4 17 -3 17 4 0 6 17 11 40 11 22 0
40 -4 40 -10 0 -5 11 -10 25 -10 23 0 25 4 25 40 0 38 2 40 30 40 28 0 30 -2
30 -40z m-803 -102 c-2 -13 -4 -3 -4 22 0 25 2 35 4 23 2 -13 2 -33 0 -45z
m1017 53 c4 -5 -3 -7 -14 -4 -23 6 -26 13 -6 13 8 0 17 -4 20 -9z m253 -12
c-16 -4 -36 -5 -45 -1 -14 5 -12 7 8 12 14 4 34 4 45 1 17 -4 16 -6 -8 -12z
m118 11 c-3 -5 -18 -10 -33 -10 -21 0 -24 2 -12 10 20 13 53 13 45 0z m60 -10
c18 -8 17 -9 -7 -9 -14 -1 -28 -4 -30 -9 -1 -4 -19 -4 -38 -1 l-35 6 38 2 c20
0 37 6 37 11 0 12 8 12 35 0z m61 -5 c-25 -19 -41 -19 -24 0 7 8 20 14 28 14
11 0 10 -3 -4 -14z m-1052 -3 c3 -5 -1 -9 -9 -9 -8 0 -15 4 -15 9 0 4 4 8 9 8
6 0 12 -4 15 -8z m866 -12 c-16 -10 -10 -13 30 -11 23 0 22 -1 -5 -9 -24 -8
-32 -6 -42 6 -7 10 -13 11 -18 5 -9 -16 -25 -13 -25 4 0 11 11 15 38 15 27 0
33 -3 22 -10z m247 4 c-3 -3 -12 -4 -19 -1 -8 3 -5 6 6 6 11 1 17 -2 13 -5z
m-28 -20 c18 -9 31 -17 29 -19 -2 -1 -46 0 -98 3 -74 4 -89 7 -70 14 14 5 40
7 58 3 19 -4 32 -2 32 5 0 14 12 13 49 -6z m85 0 c9 -23 8 -24 -14 -24 -11 0
-20 2 -20 4 0 12 13 36 20 36 4 0 11 -7 14 -16z m-1169 -13 c-2 -9 -4 -27 -4
-40 -1 -32 -7 -24 -15 20 -5 27 -3 36 8 36 7 0 12 -7 11 -16z m1442 -3 c-3 -8
-6 -5 -6 6 -1 11 2 17 5 13 3 -3 4 -12 1 -19z m460 16 c-3 -3 -12 -4 -19 -1
-8 3 -5 6 6 6 11 1 17 -2 13 -5z m56 -11 c-7 -2 -21 -2 -30 0 -10 3 -4 5 12 5
17 0 24 -2 18 -5z m-678 -13 c7 -12 -29 -12 -65 0 -21 7 -19 8 17 9 23 1 45
-3 48 -9z m125 -10 c0 -5 -4 -10 -10 -10 -5 0 -10 5 -10 10 0 6 5 10 10 10 6
0 10 -4 10 -10z m-1713 -62 c-3 -7 -5 -2 -5 12 0 14 2 19 5 13 2 -7 2 -19 0
-25z m1040 0 c-3 -7 -5 -2 -5 12 0 14 2 19 5 13 2 -7 2 -19 0 -25z m-1189 -49
c-3 -8 -7 -3 -11 10 -4 17 -3 21 5 13 5 -5 8 -16 6 -23z m169 -26 c-3 -10 -5
-4 -5 12 0 17 2 24 5 18 2 -7 2 -21 0 -30z m763 27 c0 -5 -4 -10 -10 -10 -5 0
-10 5 -10 10 0 6 5 10 10 10 6 0 10 -4 10 -10z m-476 -35 c3 -8 1 -15 -4 -15
-6 0 -10 7 -10 15 0 8 2 15 4 15 2 0 6 -7 10 -15z m881 -15 c-3 -5 -12 -10
-18 -10 -7 0 -6 4 3 10 19 12 23 12 15 0z m-1265 -4 c0 -2 -7 -7 -16 -10 -8
-3 -12 -2 -9 4 6 10 25 14 25 6z m864 -12 c3 -8 2 -12 -4 -9 -6 3 -10 10 -10
16 0 14 7 11 14 -7z m-774 -4 c0 -5 -4 -10 -10 -10 -5 0 -10 5 -10 10 0 6 5
10 10 10 6 0 10 -4 10 -10z m300 0 c0 -5 -9 -10 -21 -10 -11 0 -17 5 -14 10 3
6 13 10 21 10 8 0 14 -4 14 -10z m-117 -31 c-9 -9 -53 -1 -53 10 0 4 14 6 31
3 17 -2 27 -8 22 -13z m407 5 c0 -2 -9 -4 -21 -4 -11 0 -18 4 -14 10 5 8 35 3
35 -6z m590 6 c0 -5 -4 -10 -9 -10 -6 0 -13 5 -16 10 -3 6 1 10 9 10 9 0 16
-4 16 -10z m442 -32 c-6 -6 -7 0 -4 19 5 21 7 23 10 9 2 -10 0 -22 -6 -28z
m-1655 26 c-3 -3 -12 -4 -19 -1 -8 3 -5 6 6 6 11 1 17 -2 13 -5z m320 0 c-3
-3 -12 -4 -19 -1 -8 3 -5 6 6 6 11 1 17 -2 13 -5z m53 -4 c0 -5 -4 -10 -9 -10
-6 0 -13 5 -16 10 -3 6 1 10 9 10 9 0 16 -4 16 -10z m40 -5 c10 -12 10 -15 -4
-15 -9 0 -16 7 -16 15 0 8 2 15 4 15 2 0 9 -7 16 -15z m343 8 c-7 -2 -19 -2
-25 0 -7 3 -2 5 12 5 14 0 19 -2 13 -5z m-806 -19 c-3 -3 -12 -4 -19 -1 -8 3
-5 6 6 6 11 1 17 -2 13 -5z m70 -61 c-2 -16 -4 -5 -4 22 0 28 2 40 4 28 2 -13
2 -35 0 -50z m230 61 c-3 -3 -12 -4 -19 -1 -8 3 -5 6 6 6 11 1 17 -2 13 -5z
m260 0 c-3 -3 -12 -4 -19 -1 -8 3 -5 6 6 6 11 1 17 -2 13 -5z m201 -1 c-10 -2
-28 -2 -40 0 -13 2 -5 4 17 4 22 1 32 -1 23 -4z m1717 -3 c3 -5 1 -10 -4 -10
-6 0 -11 5 -11 10 0 6 2 10 4 10 3 0 8 -4 11 -10z m-2388 -62 c-2 -13 -4 -3
-4 22 0 25 2 35 4 23 2 -13 2 -33 0 -45z m1670 26 c-3 -3 -12 -4 -19 -1 -8 3
-5 6 6 6 11 1 17 -2 13 -5z m-100 -24 c3 -10 2 -11 -4 -3 -4 6 -26 13 -48 16
-40 4 -40 4 4 3 30 -1 46 -6 48 -16z m173 10 c0 -5 -5 -10 -11 -10 -5 0 -7 5
-4 10 3 6 8 10 11 10 2 0 4 -4 4 -10z m-130 -4 c0 -3 -4 -8 -10 -11 -5 -3 -10
-1 -10 4 0 6 5 11 10 11 6 0 10 -2 10 -4z m45 -16 c3 -5 -1 -10 -10 -10 -9 0
-13 5 -10 10 3 6 8 10 10 10 2 0 7 -4 10 -10z m72 -72 c-3 -8 -6 -5 -6 6 -1
11 2 17 5 13 3 -3 4 -12 1 -19z m-2400 -16 c7 -4 -10 -9 -37 -10 -28 -1 -50 2
-50 8 0 12 69 13 87 2z m93 -12 c-34 -11 -50 -12 -50 -2 0 4 17 8 38 9 32 1
34 0 12 -7z m273 0 c15 0 27 -3 27 -7 0 -5 -30 -8 -68 -8 -37 -1 -53 1 -37 4
l30 4 -30 8 c-25 7 -24 8 10 4 22 -3 52 -5 68 -5z m70 -4 c10 3 17 1 17 -5 0
-6 -11 -11 -25 -11 -17 0 -25 5 -25 18 0 12 2 14 8 4 5 -7 16 -10 25 -6z m107
5 c0 -4 12 -6 26 -3 19 3 25 1 20 -7 -8 -13 -116 -15 -116 -3 0 5 14 6 31 4
22 -3 30 -1 25 7 -4 6 -2 11 3 11 6 0 11 -4 11 -9z m300 -17 c0 -22 31 -16 37
6 3 11 10 20 15 20 6 0 8 -7 4 -15 -6 -16 19 -21 29 -6 3 5 21 7 40 4 21 -3
41 -1 50 7 10 9 15 9 15 1 0 -6 17 -12 38 -13 32 -1 29 -2 -18 -9 -35 -4 8 -6
115 -5 94 2 139 1 100 -1 -38 -2 -72 -7 -75 -11 -3 -4 -57 -5 -120 -3 -72 2
-107 6 -95 12 20 7 20 8 -1 8 -11 1 -23 -2 -27 -5 -11 -11 -112 -12 -120 0 -6
8 -10 8 -14 -1 -8 -22 -20 -14 -16 11 4 17 10 22 24 19 10 -3 19 -12 19 -19z
m30 16 c0 -5 -4 -10 -10 -10 -5 0 -10 5 -10 10 0 6 5 10 10 10 6 0 10 -4 10
-10z m393 3 c-7 -2 -21 -2 -30 0 -10 3 -4 5 12 5 17 0 24 -2 18 -5z m-1116 -9
c-3 -3 -12 -4 -19 -1 -8 3 -5 6 6 6 11 1 17 -2 13 -5z m80 0 c-3 -3 -12 -4
-19 -1 -8 3 -5 6 6 6 11 1 17 -2 13 -5z m440 -16 c-3 -8 -6 -5 -6 6 -1 11 2
17 5 13 3 -3 4 -12 1 -19z m-24 -5 c-7 -2 -21 -2 -30 0 -10 3 -4 5 12 5 17 0
24 -2 18 -5z m830 0 c-24 -2 -62 -2 -85 0 -24 2 -5 4 42 4 47 0 66 -2 43 -4z
m-210 -20 c-7 -2 -19 -2 -25 0 -7 3 -2 5 12 5 14 0 19 -2 13 -5z m105 0 c-10
-2 -26 -2 -35 0 -10 3 -2 5 17 5 19 0 27 -2 18 -5z m162 -3 c-14 -4 -50 -8
-80 -8 -51 1 -52 1 -15 7 22 3 58 7 80 7 33 2 36 1 15 -6z m60 0 c0 -5 -8 -10
-17 -10 -15 0 -16 2 -3 10 19 12 20 12 20 0z m159 -17 c2 -2 -8 -3 -22 -3 -20
0 -25 4 -21 15 5 13 9 13 23 3 9 -7 18 -14 20 -15z m238 -9 c-3 -3 -12 -4 -19
-1 -8 3 -5 6 6 6 11 1 17 -2 13 -5z m88 -4 c-3 -5 -14 -10 -23 -9 -14 0 -13 2
3 9 27 11 27 11 20 0z m266 -8 c-13 -2 -27 0 -32 5 -6 6 3 7 23 4 28 -4 29 -6
9 -9z m-198 1 c-7 -2 -19 -2 -25 0 -7 3 -2 5 12 5 14 0 19 -2 13 -5z m85 0
c-10 -2 -26 -2 -35 0 -10 3 -2 5 17 5 19 0 27 -2 18 -5z m-1261 -130 c-3 -10
-5 -4 -5 12 0 17 2 24 5 18 2 -7 2 -21 0 -30z m1550 -5 c-3 -7 -5 -2 -5 12 0
14 2 19 5 13 2 -7 2 -19 0 -25z m-1077 -93 c7 -9 8 -15 2 -15 -5 0 -12 7 -16
15 -3 8 -4 15 -2 15 2 0 9 -7 16 -15z m-685 -5 c3 -5 1 -10 -4 -10 -6 0 -11 5
-11 10 0 6 2 10 4 10 3 0 8 -4 11 -10z m932 -17 c-4 -3 -2 -12 4 -20 9 -10 8
-13 -5 -13 -9 0 -16 8 -16 20 0 11 5 20 12 20 6 0 8 -3 5 -7z m-1377 -23 c0
-5 -5 -10 -11 -10 -5 0 -7 5 -4 10 3 6 8 10 11 10 2 0 4 -4 4 -10z m389 -17
c1 10 9 17 22 17 11 0 18 -4 14 -9 -3 -5 0 -13 6 -17 6 -3 15 0 20 7 11 17 11
-9 3 -114 -6 -70 -9 -77 -29 -77 -11 0 -30 7 -41 16 -10 8 -13 13 -6 9 9 -5
11 1 7 24 -3 18 -1 31 5 31 5 0 10 9 10 20 0 11 -7 20 -15 20 -11 0 -15 12
-14 48 0 35 3 42 9 27 7 -17 9 -17 9 -2z m478 -5 c-3 -8 -6 -5 -6 6 -1 11 2
17 5 13 3 -3 4 -12 1 -19z m640 6 c-3 -3 -12 -4 -19 -1 -8 3 -5 6 6 6 11 1 17
-2 13 -5z m-127 -49 c0 -25 -4 -45 -10 -45 -5 0 -10 20 -10 45 0 25 5 45 10
45 6 0 10 -20 10 -45z m815 5 c3 -5 -3 -10 -14 -10 -12 0 -21 5 -21 10 0 6 6
10 14 10 8 0 18 -4 21 -10z m-26 -109 c1 -35 -5 -22 -12 24 -5 28 -4 34 3 20
5 -11 9 -31 9 -44z m28 12 c-3 -10 -5 -2 -5 17 0 19 2 27 5 18 2 -10 2 -26 0
-35z m596 -87 c3 -30 1 -43 -4 -35 -8 13 -13 97 -5 88 2 -2 6 -26 9 -53z
m-2286 38 c-3 -3 -12 -4 -19 -1 -8 3 -5 6 6 6 11 1 17 -2 13 -5z m106 -1 c-18
-2 -48 -2 -65 0 -18 2 -4 4 32 4 36 0 50 -2 33 -4z m114 -15 c0 -10 -27 -13
-106 -11 -206 3 -224 7 -61 13 91 3 165 7 166 8 0 1 1 -4 1 -10z m308 2 c3 -5
25 -9 48 -8 l42 1 -45 7 c-42 7 -40 7 25 8 50 1 66 -1 55 -9 -11 -7 6 -9 58
-7 54 2 72 0 72 -10 0 -7 -5 -10 -10 -7 -6 3 -68 6 -139 6 -95 0 -134 4 -148
14 -17 13 -16 14 9 15 15 0 30 -4 33 -10z m213 3 c-10 -2 -26 -2 -35 0 -10 3
-2 5 17 5 19 0 27 -2 18 -5z m-318 -7 c0 -2 -13 -6 -29 -8 -17 -2 -28 -1 -25
4 5 8 54 12 54 4z m583 -13 c-7 -2 -19 -2 -25 0 -7 3 -2 5 12 5 14 0 19 -2 13
-5z m160 0 c-7 -2 -19 -2 -25 0 -7 3 -2 5 12 5 14 0 19 -2 13 -5z m-240 -10
c-7 -2 -19 -2 -25 0 -7 3 -2 5 12 5 14 0 19 -2 13 -5z m1400 -33 c-3 -11 -9
-20 -14 -20 -14 0 -11 28 4 33 6 3 13 6 14 6 0 1 -1 -8 -4 -19z m-2363 -10 c0
-5 -14 -10 -31 -10 -17 0 -28 4 -24 10 3 6 17 10 31 10 13 0 24 -4 24 -10z
m880 -28 c0 -5 -7 -9 -15 -9 -8 0 -15 4 -15 9 0 4 7 8 15 8 8 0 15 -4 15 -8z
m-904 -11 c-3 -5 -15 -7 -26 -4 -28 7 -25 13 6 13 14 0 23 -4 20 -9z m3169 -1
c3 -5 1 -10 -4 -10 -6 0 -11 5 -11 10 0 6 2 10 4 10 3 0 8 -4 11 -10z m-3178
-82 c-2 -13 -4 -3 -4 22 0 25 2 35 4 23 2 -13 2 -33 0 -45z m578 42 c3 -5 -3
-10 -15 -10 -12 0 -18 5 -15 10 3 6 10 10 15 10 5 0 12 -4 15 -10z m212 4 c-3
-3 -12 -4 -19 -1 -8 3 -5 6 6 6 11 1 17 -2 13 -5z m-152 -14 c-3 -5 -12 -7
-20 -3 -21 7 -19 13 6 13 11 0 18 -4 14 -10z m-88 -116 c-3 -3 -12 -4 -19 -1
-8 3 -5 6 6 6 11 1 17 -2 13 -5z m86 -1 c-7 -2 -19 -2 -25 0 -7 3 -2 5 12 5
14 0 19 -2 13 -5z m2204 -849 c-3 -3 -12 -4 -19 -1 -8 3 -5 6 6 6 11 1 17 -2
13 -5z m246 -31 c-7 -2 -19 -2 -25 0 -7 3 -2 5 12 5 14 0 19 -2 13 -5z m94 -9
c-3 -3 -12 -4 -19 -1 -8 3 -5 6 6 6 11 1 17 -2 13 -5z m-2660 -330 c-3 -3 -12
-4 -19 -1 -8 3 -5 6 6 6 11 1 17 -2 13 -5z m-933 -23 c3 -5 -6 -8 -20 -8 -19
0 -22 2 -13 8 18 11 26 11 33 0z m159 -8 c-7 -2 -19 -2 -25 0 -7 3 -2 5 12 5
14 0 19 -2 13 -5z m152 -23 c3 -5 1 -10 -4 -10 -6 0 -11 5 -11 10 0 6 2 10 4
10 3 0 8 -4 11 -10z m192 -16 c-3 -3 -12 -4 -19 -1 -8 3 -5 6 6 6 11 1 17 -2
13 -5z m-539 -11 c-10 -2 -26 -2 -35 0 -10 3 -2 5 17 5 19 0 27 -2 18 -5z
m1489 1 c-3 -3 -12 -4 -19 -1 -8 3 -5 6 6 6 11 1 17 -2 13 -5z m-582 -14 c3
-5 1 -10 -4 -10 -6 0 -11 5 -11 10 0 6 2 10 4 10 3 0 8 -4 11 -10z m-615 -10
c0 -5 -11 -9 -24 -8 -14 1 -22 6 -20 10 7 12 44 10 44 -2z m-115 -40 c-3 -5
-18 -9 -33 -9 l-27 1 30 8 c17 4 31 8 33 9 2 0 0 -3 -3 -9z m1142 -16 c-3 -3
-12 -4 -19 -1 -8 3 -5 6 6 6 11 1 17 -2 13 -5z m40 -80 c-3 -3 -12 -4 -19 -1
-8 3 -5 6 6 6 11 1 17 -2 13 -5z m-477 -24 c24 -15 7 -18 -25 -4 -23 10 -25
13 -10 13 11 1 27 -3 35 -9z"/>
<path d="M2263 3749 c-15 -15 -17 -33 -3 -24 5 3 8 0 5 -7 -3 -7 0 -20 5 -28
9 -13 11 -13 19 0 6 8 6 19 2 25 -5 5 -10 18 -12 28 -3 15 -6 16 -16 6z"/>
<path d="M1864 3735 c19 -10 41 -13 70 -8 41 7 41 7 11 14 -16 4 -48 7 -70 8
l-40 1 29 -15z m53 -1 c-3 -3 -12 -4 -19 -1 -8 3 -5 6 6 6 11 1 17 -2 13 -5z"/>
<path d="M1980 3736 c0 -10 28 -13 41 -5 10 6 7 9 -13 9 -16 0 -28 -2 -28 -4z"/>
<path d="M2058 3723 c6 -2 18 -2 25 0 6 3 1 5 -13 5 -14 0 -19 -2 -12 -5z"/>
<path d="M1760 3595 l0 -45 43 5 c29 3 34 2 17 -3 -24 -8 -24 -8 9 -15 50 -10
143 -9 136 2 -3 6 12 12 32 14 21 3 11 3 -22 1 -33 -2 -78 -6 -100 -9 -31 -4
-35 -3 -15 4 24 9 24 9 3 10 -20 1 -23 6 -23 41 l0 40 -40 0 -40 0 0 -45z"/>
<path d="M2402 3585 c0 -16 2 -22 5 -12 2 9 2 23 0 30 -3 6 -5 -1 -5 -18z"/>
<path d="M2080 3541 c0 -6 14 -11 31 -11 17 0 28 -4 24 -10 -3 -5 3 -10 15
-10 12 0 19 4 15 9 -3 5 9 12 27 14 21 2 12 4 -24 5 -31 1 -63 5 -72 8 -9 3
-16 1 -16 -5z"/>
<path d="M2218 3503 c7 -3 16 -2 19 1 4 3 -2 6 -13 5 -11 0 -14 -3 -6 -6z"/>
<path d="M2230 2988 c0 -5 11 -8 24 -8 14 0 27 3 29 8 3 4 -8 7 -24 7 -16 0
-29 -3 -29 -7z"/>
<path d="M1573 4560 c0 -25 2 -35 4 -22 2 12 2 32 0 45 -2 12 -4 2 -4 -23z"/>
<path d="M3970 4374 c0 -10 6 -14 15 -10 13 5 14 2 4 -17 -11 -19 -10 -20 3
-9 10 8 31 10 62 6 39 -6 50 -12 59 -33 l11 -26 4 28 c6 48 -3 57 -57 57 -27
0 -61 4 -75 10 -21 8 -26 7 -26 -6z"/>
<path d="M1848 4333 c7 -3 16 -2 19 1 4 3 -2 6 -13 5 -11 0 -14 -3 -6 -6z"/>
<path d="M1645 4310 c-3 -5 3 -10 14 -10 12 0 21 5 21 10 0 6 -6 10 -14 10 -8
0 -18 -4 -21 -10z"/>
<path d="M1728 4293 c6 -2 18 -2 25 0 6 3 1 5 -13 5 -14 0 -19 -2 -12 -5z"/>
<path d="M1643 4283 c9 -2 23 -2 30 0 6 3 -1 5 -18 5 -16 0 -22 -2 -12 -5z"/>
<path d="M4775 4250 c4 -6 11 -8 16 -5 14 9 11 15 -7 15 -8 0 -12 -5 -9 -10z"/>
<path d="M2168 4233 c7 -3 16 -2 19 1 4 3 -2 6 -13 5 -11 0 -14 -3 -6 -6z"/>
<path d="M2256 4230 c12 -5 41 -10 65 -13 24 -2 35 -2 24 0 -11 3 -24 9 -29
14 -6 5 -26 9 -45 8 -30 0 -33 -2 -15 -9z"/>
<path d="M2535 4222 c3 -7 5 -23 5 -35 0 -21 0 -21 21 2 17 18 28 22 53 17 40
-8 170 -24 316 -40 63 -7 108 -15 100 -18 -9 -4 -5 -6 10 -5 14 0 45 0 70 -2
34 -2 40 -4 25 -11 -12 -5 4 -6 40 -3 78 7 144 -19 146 -57 1 -19 3 -17 8 10
4 19 6 38 4 42 -2 3 -26 9 -53 13 -27 4 -52 10 -55 14 -2 5 -28 6 -57 4 -38
-2 -47 -1 -33 6 16 7 12 9 -20 8 -74 -2 -146 3 -142 11 3 4 -20 8 -51 9 -32 2
-79 7 -107 12 -27 6 -78 13 -112 16 -35 4 -61 10 -59 13 2 4 -23 7 -55 8 -47
0 -59 -3 -54 -14z"/>
<path d="M2248 4203 c6 -2 18 -2 25 0 6 3 1 5 -13 5 -14 0 -19 -2 -12 -5z"/>
<path d="M2411 4164 c0 -11 3 -14 6 -6 3 7 2 16 -1 19 -3 4 -6 -2 -5 -13z"/>
<path d="M3846 4118 l-26 -33 28 -6 c15 -4 39 -7 55 -8 25 -1 27 2 27 39 0 38
-2 40 -29 40 -21 0 -37 -9 -55 -32z"/>
<path d="M1640 4106 c0 -2 11 -6 25 -8 13 -3 22 -1 19 3 -5 9 -44 13 -44 5z"/>
<path d="M4752 4060 c0 -14 2 -19 5 -12 2 6 2 18 0 25 -3 6 -5 1 -5 -13z"/>
<path d="M3528 4053 c6 -2 18 -2 25 0 6 3 1 5 -13 5 -14 0 -19 -2 -12 -5z"/>
<path d="M3600 4050 c0 -5 4 -10 9 -10 6 0 13 5 16 10 3 6 -1 10 -9 10 -9 0
-16 -4 -16 -10z"/>
<path d="M3323 3970 c0 -41 2 -58 4 -37 2 20 2 54 0 75 -2 20 -4 3 -4 -38z"/>
<path d="M2560 4000 c0 -6 7 -10 15 -10 8 0 15 2 15 4 0 2 -7 6 -15 10 -8 3
-15 1 -15 -4z"/>
<path d="M4771 3995 c-1 -11 -4 -31 -6 -45 l-6 -25 11 25 c6 13 9 33 7 45 -4
19 -4 19 -6 0z"/>
<path d="M3973 3989 c-41 -12 -42 -19 -4 -19 16 0 31 6 35 15 3 8 4 15 3 14
-1 0 -17 -5 -34 -10z"/>
<path d="M4065 3980 c3 -5 13 -10 21 -10 8 0 14 5 14 10 0 6 -9 10 -21 10 -11
0 -17 -4 -14 -10z"/>
<path d="M2537 3973 c-11 -10 -8 -20 7 -36 12 -12 13 -37 5 -153 -7 -96 -7
-140 1 -142 13 -5 13 -82 0 -82 -5 0 -10 -18 -10 -40 0 -22 5 -40 10 -40 6 0
10 18 10 40 0 22 5 40 11 40 10 0 9 21 -7 103 -1 10 3 17 12 17 8 0 14 5 14
10 0 6 -7 10 -15 10 -8 0 -15 8 -14 18 0 10 3 12 6 5 3 -8 24 -13 54 -13 38 0
49 -3 49 -16 0 -12 6 -15 25 -10 23 6 37 -8 15 -16 -5 -1 19 -3 55 -3 35 0 67
4 71 8 4 4 -12 7 -36 7 -46 0 -110 19 -110 32 0 4 5 8 10 8 6 0 10 33 10 80 0
44 -4 80 -9 80 -5 0 -8 8 -6 18 2 9 4 20 4 25 1 4 6 7 12 7 5 0 9 -8 8 -17 -1
-10 -1 -62 0 -115 l1 -97 58 -6 c31 -3 66 -11 77 -17 11 -7 82 -12 165 -14 92
-2 146 -6 148 -13 2 -6 8 -11 14 -11 6 0 8 7 5 15 -4 8 -2 17 3 20 6 4 10 -3
10 -14 0 -12 7 -21 15 -21 8 0 15 -4 15 -10 0 -11 33 -13 79 -4 l32 7 -3 120
-3 120 -30 4 c-16 1 -61 7 -100 13 -84 12 -449 58 -520 66 -27 3 -68 10 -90
14 -49 12 -50 12 -58 3z m787 -138 c3 -8 1 -15 -4 -15 -6 0 -10 7 -10 15 0 8
2 15 4 15 2 0 6 -7 10 -15z m-134 -15 c0 -5 -6 -10 -12 -11 -9 0 -9 -2 -2 -5
6 -3 9 -16 6 -29 -2 -14 1 -32 8 -40 10 -11 9 -18 -4 -30 -9 -9 -16 -15 -16
-13 -7 76 -4 138 7 138 7 0 13 -4 13 -10z m-623 -57 c-3 -10 -5 -4 -5 12 0 17
2 24 5 18 2 -7 2 -21 0 -30z m750 5 c-3 -7 -5 -2 -5 12 0 14 2 19 5 13 2 -7 2
-19 0 -25z m10 -85 c-3 -10 -5 -4 -5 12 0 17 2 24 5 18 2 -7 2 -21 0 -30z
m-399 -10 c-10 -2 -26 -2 -35 0 -10 3 -2 5 17 5 19 0 27 -2 18 -5z"/>
<path d="M3292 3940 c0 -14 2 -19 5 -12 2 6 2 18 0 25 -3 6 -5 1 -5 -13z"/>
<path d="M3110 3935 c-7 -8 -8 -15 -2 -15 5 0 15 7 22 15 7 8 8 15 2 15 -5 0
-15 -7 -22 -15z"/>
<path d="M3208 3943 c7 -3 16 -2 19 1 4 3 -2 6 -13 5 -11 0 -14 -3 -6 -6z"/>
<path d="M4082 3900 c0 -14 2 -19 5 -12 2 6 2 18 0 25 -3 6 -5 1 -5 -13z"/>
<path d="M3590 3871 c0 -4 11 -6 25 -3 14 2 25 6 25 8 0 2 -11 4 -25 4 -14 0
-25 -4 -25 -9z"/>
<path d="M3691 3876 c2 -2 31 -6 64 -9 39 -4 50 -3 30 2 -31 9 -102 14 -94 7z"/>
<path d="M3970 3876 c0 -2 7 -6 15 -10 8 -3 15 -1 15 4 0 6 -7 10 -15 10 -8 0
-15 -2 -15 -4z"/>
<path d="M3663 3853 c9 -2 23 -2 30 0 6 3 -1 5 -18 5 -16 0 -22 -2 -12 -5z"/>
<path d="M2632 3679 c-14 -22 -7 -25 14 -5 8 8 11 17 6 20 -4 2 -13 -4 -20
-15z"/>
<path d="M2650 3655 c-16 -19 -1 -19 24 0 16 12 17 15 4 15 -8 0 -21 -7 -28
-15z"/>
<path d="M2750 3649 c0 -5 5 -7 10 -4 6 3 10 8 10 11 0 2 -4 4 -10 4 -5 0 -10
-5 -10 -11z"/>
<path d="M2790 3650 c0 -5 5 -10 11 -10 5 0 7 5 4 10 -3 6 -8 10 -11 10 -2 0
-4 -4 -4 -10z"/>
<path d="M3005 3650 c3 -5 13 -10 21 -10 8 0 14 5 14 10 0 6 -9 10 -21 10 -11
0 -17 -4 -14 -10z"/>
<path d="M2838 3643 c7 -3 16 -2 19 1 4 3 -2 6 -13 5 -11 0 -14 -3 -6 -6z"/>
<path d="M3093 3643 c9 -2 23 -2 30 0 6 3 -1 5 -18 5 -16 0 -22 -2 -12 -5z"/>
<path d="M3300 3610 l-25 -8 29 -1 c21 -1 27 -5 22 -16 -3 -8 0 -15 7 -15 7 0
13 11 13 25 2 26 -5 28 -46 15z"/>
<path d="M3500 3580 l-25 -6 23 -8 c24 -8 37 -3 31 12 -2 4 -15 5 -29 2z"/>
<path d="M3806 3563 c6 -4 16 -17 23 -28 11 -19 11 -19 9 5 -2 16 -10 26 -23
28 -12 2 -16 0 -9 -5z"/>
<path d="M3326 3523 c-3 -21 -4 -56 -2 -78 2 -23 -1 -43 -8 -47 -7 -5 -3 -8 9
-8 19 0 20 6 17 82 -3 92 -7 107 -16 51z"/>
<path d="M2666 3484 c-4 -9 -13 -14 -21 -10 -8 3 -15 1 -15 -4 0 -15 29 -12
46 4 16 17 18 26 5 26 -5 0 -12 -7 -15 -16z"/>
<path d="M4040 3496 c0 -2 11 -6 25 -8 13 -3 22 -1 19 3 -5 9 -44 13 -44 5z"/>
<path d="M2760 3465 c0 -9 9 -15 21 -15 18 0 19 2 5 15 -8 8 -17 15 -20 15 -3
0 -6 -7 -6 -15z"/>
<path d="M2810 3470 c8 -5 11 -10 5 -10 -5 0 -3 -5 5 -10 8 -5 26 -9 40 -9
l25 1 -25 8 c-22 7 -20 8 14 9 54 1 40 10 -25 16 -35 2 -49 1 -39 -5z"/>
<path d="M2968 3473 c7 -3 16 -2 19 1 4 3 -2 6 -13 5 -11 0 -14 -3 -6 -6z"/>
<path d="M3092 3471 c-11 -7 -10 -10 3 -15 23 -9 25 -8 25 9 0 17 -9 19 -28 6z"/>
<path d="M3008 3453 c6 -2 18 -2 25 0 6 3 1 5 -13 5 -14 0 -19 -2 -12 -5z"/>
<path d="M3025 3430 c3 -5 8 -10 11 -10 2 0 4 5 4 10 0 6 -5 10 -11 10 -5 0
-7 -4 -4 -10z"/>
<path d="M3450 3393 c0 -5 11 -9 25 -9 14 -1 22 2 19 7 -6 11 -44 12 -44 2z"/>
<path d="M3591 3390 c9 -5 28 -6 45 0 27 8 26 8 -16 9 -32 0 -40 -2 -29 -9z"/>
<path d="M3693 3393 c9 -2 23 -2 30 0 6 3 -1 5 -18 5 -16 0 -22 -2 -12 -5z"/>
<path d="M3760 3386 c0 -10 8 -16 22 -16 12 0 19 1 17 3 -2 1 -12 9 -21 16
-15 12 -18 11 -18 -3z"/>
<path d="M3885 3390 c-3 -5 3 -10 14 -10 12 0 21 5 21 10 0 6 -6 10 -14 10 -8
0 -18 -4 -21 -10z"/>
<path d="M4110 3360 c0 -22 5 -40 10 -40 6 0 10 18 10 40 0 22 -4 40 -10 40
-5 0 -10 -18 -10 -40z"/>
<path d="M3568 3373 c7 -3 16 -2 19 1 4 3 -2 6 -13 5 -11 0 -14 -3 -6 -6z"/>
<path d="M3660 3370 c20 -13 33 -13 25 0 -3 6 -14 10 -23 10 -15 0 -15 -2 -2
-10z"/>
<path d="M3831 3361 c-9 -6 2 -10 35 -13 27 -3 51 -3 53 -1 15 12 -70 25 -88
14z"/>
<path d="M2463 3280 c0 -25 2 -35 4 -22 2 12 2 32 0 45 -2 12 -4 2 -4 -23z"/>
<path d="M4824 2705 c5 -77 16 -82 16 -7 0 35 -4 62 -10 62 -6 0 -9 -22 -6
-55z"/>
<path d="M4850 2735 c0 -14 2 -25 4 -25 2 0 6 11 8 25 3 14 1 25 -3 25 -5 0
-9 -11 -9 -25z"/>
<path d="M4232 2660 c0 -14 2 -19 5 -12 2 6 2 18 0 25 -3 6 -5 1 -5 -13z"/>
<path d="M4854 2660 c0 -11 5 -21 12 -24 7 -3 9 5 6 20 -5 29 -18 32 -18 4z"/>
<path d="M4850 2610 c0 -5 5 -10 11 -10 5 0 7 5 4 10 -3 6 -8 10 -11 10 -2 0
-4 -4 -4 -10z"/>
<path d="M4232 2575 c0 -16 2 -22 5 -12 2 9 2 23 0 30 -3 6 -5 -1 -5 -18z"/>
<path d="M4855 2550 c3 -5 8 -10 11 -10 2 0 4 5 4 10 0 6 -5 10 -11 10 -5 0
-7 -4 -4 -10z"/>
<path d="M4252 2490 c0 -19 2 -27 5 -17 2 9 2 25 0 35 -3 9 -5 1 -5 -18z"/>
<path d="M4861 2458 c-1 -10 -5 -18 -11 -18 -5 0 -10 -19 -9 -42 l1 -43 14 50
c7 28 12 55 10 60 -3 6 -5 2 -5 -7z"/>
<path d="M3393 2400 c0 -25 2 -35 4 -22 2 12 2 32 0 45 -2 12 -4 2 -4 -23z"/>
<path d="M4252 2414 c-1 -17 -4 -47 -7 -65 l-5 -34 11 34 c5 18 8 47 6 65 l-4
31 -1 -31z"/>
<path d="M4872 2380 c0 -14 2 -19 5 -12 2 6 2 18 0 25 -3 6 -5 1 -5 -13z"/>
<path d="M3396 2275 c3 -22 9 -67 14 -100 8 -56 9 -55 3 19 -3 44 -9 89 -14
100 -6 15 -7 9 -3 -19z"/>
<path d="M4866 2284 c-4 -14 -5 -28 -3 -31 3 -2 8 8 11 23 4 14 5 28 3 31 -3
2 -8 -8 -11 -23z"/>
<path d="M4884 2139 c3 -34 6 -70 6 -80 0 -11 5 -19 10 -19 6 0 10 33 10 80 0
68 -3 80 -16 80 -15 0 -16 -9 -10 -61z"/>
<path d="M2495 2180 c-3 -5 1 -10 10 -10 9 0 13 5 10 10 -3 6 -8 10 -10 10 -2
0 -7 -4 -10 -10z"/>
<path d="M4895 2008 c-4 -10 -4 -26 0 -35 8 -17 8 -17 12 0 3 9 3 25 0 35 -4
16 -4 16 -12 0z"/>
<path d="M5768 1793 c7 -3 16 -2 19 1 4 3 -2 6 -13 5 -11 0 -14 -3 -6 -6z"/>
<path d="M5808 1773 c6 -2 18 -2 25 0 6 3 1 5 -13 5 -14 0 -19 -2 -12 -5z"/>
</g>
</svg>
